<svg width="560" height="360" viewBox="0 0 560 360" fill="none" xmlns="http://www.w3.org/2000/svg" role="img" aria-labelledby="title desc">
  <title id="title">Mesa de estudos organizada</title>
  <desc id="desc">Ilustracao de livros, checklist, calendario e luminaria em uma mesa clara.</desc>
  <rect width="560" height="360" rx="24" fill="#E8F0FF"/>
  <rect x="54" y="236" width="452" height="40" rx="8" fill="#B9C8E8"/>
  <rect x="86" y="116" width="138" height="154" rx="10" fill="#FFFFFF"/>
  <rect x="106" y="140" width="86" height="12" rx="6" fill="#2F63C8"/>
  <rect x="106" y="170" width="98" height="10" rx="5" fill="#E4E7EC"/>
  <rect x="106" y="196" width="72" height="10" rx="5" fill="#E4E7EC"/>
  <rect x="106" y="222" width="92" height="10" rx="5" fill="#E4E7EC"/>
  <circle cx="192" cy="225" r="8" fill="#1F9D67"/>
  <path d="M187 225L191 229L199 219" stroke="white" stroke-width="3" stroke-linecap="round" stroke-linejoin="round"/>
  <rect x="252" y="94" width="122" height="176" rx="12" fill="#FFFFFF"/>
  <rect x="270" y="118" width="86" height="18" rx="6" fill="#DD3F7B"/>
  <rect x="270" y="154" width="28" height="28" rx="6" fill="#E8F0FF"/>
  <rect x="306" y="154" width="28" height="28" rx="6" fill="#E8F0FF"/>
  <rect x="342" y="154" width="14" height="28" rx="6" fill="#E8F0FF"/>
  <rect x="270" y="194" width="28" height="28" rx="6" fill="#E8F0FF"/>
  <rect x="306" y="194" width="28" height="28" rx="6" fill="#2F63C8"/>
  <rect x="342" y="194" width="14" height="28" rx="6" fill="#E8F0FF"/>
  <rect x="404" y="146" width="46" height="90" rx="8" fill="#244C9A"/>
  <rect x="394" y="236" width="98" height="34" rx="8" fill="#DD3F7B"/>
  <path d="M426 146C428 117 445 93 474 80" stroke="#244C9A" stroke-width="14" stroke-linecap="round"/>
  <circle cx="482" cy="76" r="24" fill="#FFFFFF"/>
  <path d="M486 58C509 65 519 88 505 107" stroke="#DD3F7B" stroke-width="10" stroke-linecap="round"/>
  <rect x="149" y="82" width="44" height="24" rx="8" fill="#DD3F7B"/>
  <rect x="200" y="74" width="44" height="32" rx="8" fill="#2F63C8"/>
  <rect x="247" y="58" width="44" height="48" rx="8" fill="#1F9D67"/>
  <path d="M84 276H492" stroke="#8EA4D2" stroke-width="6" stroke-linecap="round"/>
</svg>
